{
    "accessors": [
        {
            "bufferView": 0,
            "byteOffset": 12,
            "componentType": 5126,
            "count": 980,
            "max": [
                0.9995101690292358,
                0.9802723526954651,
                0.9996169805526733
            ],
            "min": [
                -0.9999017715454102,
                -0.9996221661567688,
                -0.9997976422309875
            ],
            "name": "accessor_buffer_Group1_1",
            "type": "VEC3"
        },
        {
            "bufferView": 1,
            "byteOffset": 0,
            "componentType": 5123,
            "count": 5868,
            "max": [
                979
            ],
            "min": [
                0
            ],
            "name": "accessor_buffer_Group1_2",
            "type": "SCALAR"
        },
        {
            "bufferView": 0,
            "byteOffset": 0,
            "componentType": 5126,
            "count": 980,
            "max": [
                5.848053455352783,
                20.681617736816406,
                1.9092310667037964
            ],
            "min": [
                -5.830555438995361,
                -0.08213035762310028,
                -1.855246901512146
            ],
            "name": "accessor_buffer_Group1_0",
            "type": "VEC3"
        }
    ],
    "asset": {
        "version": "2.0"
    },
    "bufferViews": [
        {
            "buffer": 0,
            "byteLength": 23520,
            "byteOffset": 0,
            "byteStride": 24,
            "name": "bufferView_buffer_Group1_0",
            "target": 34962
        },
        {
            "buffer": 0,
            "byteLength": 11736,
            "byteOffset": 23520,
            "name": "bufferView_buffer_Group1_1",
            "target": 34963
        }
    ],
    "buffers": [
        {
            "byteLength": 35256,
            "name": "buffer_combined",
            "uri": "buffer_combined.bin"
        }
    ],
    "materials": [
        {
            "emissiveFactor": [
                0.0,
                0.0,
                0.0
            ],
            "name": "default",
            "pbrMetallicRoughness": {
                "baseColorFactor": [
                    0.64000004529953,
                    0.64000004529953,
                    0.64000004529953,
                    1.0
                ],
                "metallicFactor": 0.0,
                "roughnessFactor": 1.0
            }
        }
    ],
    "meshes": [
        {
            "name": "Group1",
            "primitives": [
                {
                    "attributes": {
                        "NORMAL": 0,
                        "POSITION": 2
                    },
                    "indices": 1,
                    "material": 0,
                    "mode": 4
                }
            ]
        }
    ],
    "nodes": [
        {
            "mesh": 0,
            "name": "Group1",
            "rotation": [
                0.7071068286895752,
                0.0,
                0.0,
                0.7071067094802856
            ],
            "scale": [
                1.0,
                1.0,
                1.0
            ],
            "translation": [
                0.0,
                0.0,
                0.0
            ]
        },
        {
            "children": [
                0
            ],
            "matrix": [
                -1.0,
                0.0,
                0.0,
                0.0,
                0.0,
                0.0,
                1.0,
                0.0,
                0.0,
                1.0,
                0.0,
                0.0,
                0.0,
                0.0,
                0.0,
                1.0
            ],
            "name": "Scene_root"
        }
    ],
    "samplers": [
        {
            "name": "default"
        }
    ],
    "scene": 0,
    "scenes": [
        {
            "extras": {
                "active_camera": null,
                "b_painter_active_brush": "Brush Default",
                "b_painter_active_stencil_category": "Stencil Shapes",
                "b_painter_active_tex_brush": "None",
                "b_painter_active_tex_brush_category": "Brush Textures",
                "b_painter_brush": 6,
                "b_painter_load_first_time": 0,
                "b_painter_panels": [
                    "BRUSH",
                    "COLOR",
                    "TEXTURE",
                    "STENCIL",
                    "LAYER"
                ],
                "b_painter_tex_stencil_categories": 1031570,
                "b_painter_use_absolute_size": 0,
                "background_color": [
                    0.05087608844041824,
                    0.05087608844041824,
                    0.05087608844041824
                ],
                "current_palette_color": [
                    0.01568627543747425,
                    0.0,
                    0.250980406999588
                ],
                "frames_per_second": 24
            },
            "name": "Scene",
            "nodes": [
                1
            ]
        }
    ]
}
