{
    "accessors": [
        {
            "bufferView": 5,
            "byteOffset": 0,
            "componentType": 5126,
            "count": 240,
            "max": [
                1.0,
                1.0,
                1.0
            ],
            "min": [
                1.0,
                1.0,
                1.0
            ],
            "name": "accessor_buffer_liver_liverAction_2",
            "type": "VEC3"
        },
        {
            "bufferView": 3,
            "byteOffset": 0,
            "componentType": 5126,
            "count": 240,
            "max": [
                0,
                0,
                11.375604629516602
            ],
            "min": [
                0.0,
                -8.72567081451416,
                5.0
            ],
            "name": "accessor_buffer_liver_liverAction_0",
            "type": "VEC3"
        },
        {
            "bufferView": 2,
            "byteOffset": 0,
            "componentType": 5126,
            "count": 240,
            "max": [
                9.958333333333327
            ],
            "min": [
                0
            ],
            "name": "accessor_buffer_liverAction_time_0",
            "type": "SCALAR"
        },
        {
            "bufferView": 1,
            "byteOffset": 0,
            "componentType": 5123,
            "count": 2880,
            "max": [
                481
            ],
            "min": [
                0
            ],
            "name": "accessor_buffer_Sphere_2",
            "type": "SCALAR"
        },
        {
            "bufferView": 4,
            "byteOffset": 0,
            "componentType": 5126,
            "count": 240,
            "max": [
                0,
                0,
                0,
                1.0
            ],
            "min": [
                0.0,
                0.0,
                0.0,
                1.0
            ],
            "name": "accessor_buffer_liver_liverAction_1",
            "type": "VEC4"
        },
        {
            "bufferView": 0,
            "byteOffset": 0,
            "componentType": 5126,
            "count": 482,
            "max": [
                2.8669285774230957,
                0.9999991655349731,
                1.173971176147461
            ],
            "min": [
                -1.921181559562683,
                -0.9802484512329102,
                -1.5003960132598877
            ],
            "name": "accessor_buffer_Sphere_0",
            "type": "VEC3"
        },
        {
            "bufferView": 0,
            "byteOffset": 12,
            "componentType": 5126,
            "count": 482,
            "max": [
                0.9368267059326172,
                0.999969482421875,
                0.999908447265625
            ],
            "min": [
                -0.9998779296875,
                -0.999969482421875,
                -0.9893490672111511
            ],
            "name": "accessor_buffer_Sphere_1",
            "type": "VEC3"
        }
    ],
    "animations": [
        {
            "channels": [
                {
                    "sampler": 0,
                    "target": {
                        "node": 0,
                        "path": "translation"
                    }
                },
                {
                    "sampler": 1,
                    "target": {
                        "node": 0,
                        "path": "rotation"
                    }
                },
                {
                    "sampler": 2,
                    "target": {
                        "node": 0,
                        "path": "scale"
                    }
                }
            ],
            "name": "liverAction",
            "samplers": [
                {
                    "input": 2,
                    "interpolation": "LINEAR",
                    "output": 1
                },
                {
                    "input": 2,
                    "interpolation": "LINEAR",
                    "output": 4
                },
                {
                    "input": 2,
                    "interpolation": "LINEAR",
                    "output": 0
                }
            ]
        }
    ],
    "asset": {
        "version": "2.0"
    },
    "bufferViews": [
        {
            "buffer": 0,
            "byteLength": 11568,
            "byteOffset": 0,
            "byteStride": 24,
            "name": "bufferView_buffer_Sphere_0",
            "target": 34962
        },
        {
            "buffer": 0,
            "byteLength": 5760,
            "byteOffset": 11568,
            "name": "bufferView_buffer_Sphere_1",
            "target": 34963
        },
        {
            "buffer": 0,
            "byteLength": 960,
            "byteOffset": 17328,
            "byteStride": 4,
            "name": "bufferView_buffer_liverAction_time_0"
        },
        {
            "buffer": 0,
            "byteLength": 2880,
            "byteOffset": 18288,
            "byteStride": 12,
            "name": "bufferView_buffer_liver_liverAction_0"
        },
        {
            "buffer": 0,
            "byteLength": 3840,
            "byteOffset": 21168,
            "byteStride": 16,
            "name": "bufferView_buffer_liver_liverAction_1"
        },
        {
            "buffer": 0,
            "byteLength": 2880,
            "byteOffset": 25008,
            "byteStride": 12,
            "name": "bufferView_buffer_liver_liverAction_2"
        }
    ],
    "buffers": [
        {
            "byteLength": 27888,
            "name": "buffer_combined",
            "uri": "buffer_combined.bin"
        }
    ],
    "materials": [
        {
            "emissiveFactor": [
                0.0,
                0.0,
                0.0
            ],
            "name": "Material",
            "pbrMetallicRoughness": {
                "baseColorFactor": [
                    0.64000004529953,
                    0.64000004529953,
                    0.64000004529953,
                    1.0
                ],
                "metallicFactor": 0.0,
                "roughnessFactor": 1.0
            }
        }
    ],
    "meshes": [
        {
            "name": "Sphere",
            "primitives": [
                {
                    "attributes": {
                        "NORMAL": 6,
                        "POSITION": 5
                    },
                    "indices": 3,
                    "material": 0,
                    "mode": 4
                }
            ]
        }
    ],
    "nodes": [
        {
            "mesh": 0,
            "name": "liver",
            "rotation": [
                0.0,
                0.0,
                0.0,
                1.0
            ],
            "scale": [
                1.0,
                1.0,
                1.0
            ],
            "translation": [
                0.0,
                -8.72567081451416,
                5.0
            ]
        },
        {
            "children": [
                0
            ],
            "matrix": [
                -1.0,
                0.0,
                0.0,
                0.0,
                0.0,
                0.0,
                1.0,
                0.0,
                0.0,
                1.0,
                0.0,
                0.0,
                0.0,
                0.0,
                0.0,
                1.0
            ],
            "name": "Scene_root"
        }
    ],
    "samplers": [
        {
            "name": "default"
        }
    ],
    "scene": 0,
    "scenes": [
        {
            "extras": {
                "active_camera": null,
                "b_painter_active_brush": "Brush Default",
                "b_painter_active_stencil_category": "Stencil Shapes",
                "b_painter_active_tex_brush": "None",
                "b_painter_active_tex_brush_category": "Brush Textures",
                "b_painter_brush": 6,
                "b_painter_load_first_time": 0,
                "b_painter_panels": [
                    "BRUSH",
                    "COLOR",
                    "TEXTURE",
                    "STENCIL",
                    "LAYER"
                ],
                "b_painter_tex_stencil_categories": 1031570,
                "b_painter_use_absolute_size": 0,
                "background_color": [
                    0.05087608844041824,
                    0.05087608844041824,
                    0.05087608844041824
                ],
                "current_palette_color": [
                    0.01568627543747425,
                    0.0,
                    0.250980406999588
                ],
                "frames_per_second": 24
            },
            "name": "Scene",
            "nodes": [
                1
            ]
        }
    ]
}
